<svg xmlns="http://www.w3.org/2000/svg" xmlns:xlink="http://www.w3.org/1999/xlink" version="1.1" id="Layer_2" x="0px" y="0px" viewBox="0 0 250 250" style="enable-background:new 0 0 250 250;" xml:space="preserve" width="250"  height="250" ><script xmlns="">window._wordtune_extension_installed = true;</script>
<style type="text/css">
	.st0{fill:none;stroke:black;stroke-width:8;stroke-miterlimit:10;}
	.st1{display:none;fill:#FFFFFF;stroke:#6FC2ED;stroke-width:8;stroke-miterlimit:10;}
	.st2{display:none;fill:none;stroke:black;stroke-width:8;stroke-miterlimit:10;}
	.st3{display:none;fill:black;}
	.st4{fill:black;}
</style>
<circle class="st0" cx="125.2" cy="125.7" r="102.5"/>
<circle class="st1" cx="110.7" cy="115.7" r="34.5"/>
<path class="st2" d="M90.2,117.7c0-12,9.8-21.8,22-21.8"/>
<path class="st3" d="M167.5,173.5l-1.8,1.7c-3.1,3-8.1,2.9-11.1-0.2l-19.8-20.5c0,0,1.2-0.9,5.2-4.4c3.9-3.6,4.9-4.7,8-8.2  l19.8,20.5C170.7,165.4,170.6,170.4,167.5,173.5z"/>
<path class="st4" d="M125.2,74.4l-60.1,48.4l1,1.3c2.6,3.5,7.7,4.1,11.1,1.3l48-39.4l48,39.4c3.4,2.8,8.5,2.2,11.1-1.3l1-1.3  l-17.4-14.1V84.1h-17.4v10.6L125.2,74.4z M125.2,93.8l-46.5,36.8v46.5h96v-43.7L125.2,93.8z M113.5,134.4h23.2v34.9h-23.2V134.4z"/>
</svg>